<svg width="317" height="67" viewBox="0 0 317 67" fill="none" xmlns="http://www.w3.org/2000/svg">
<path d="M104.48 33.0981C104.48 27.1081 107.89 23.8281 115.85 23.8281C123.81 23.8281 127.22 27.1381 127.22 33.0981C127.22 39.0581 123.78 42.4281 115.85 42.4281C107.92 42.4281 104.48 39.1181 104.48 33.0981ZM122.56 33.0981C122.56 29.4281 120.7 27.7281 115.84 27.7281C110.98 27.7281 109.12 29.4081 109.12 33.0981C109.12 36.7881 111.01 38.5281 115.84 38.5281C120.67 38.5281 122.56 36.7981 122.56 33.0981Z" fill="white"/>
<path d="M144.931 38.4487H134.111L132.171 42.2987H127.051L136.381 24.2188H142.661L152.011 42.2987H146.871L144.931 38.4487ZM143.201 34.9888L139.531 27.6488L135.841 34.9888H143.201Z" fill="white"/>
<path d="M195.391 33.2309C195.391 27.2409 198.801 23.9609 206.761 23.9609C214.721 23.9609 218.131 27.2709 218.131 33.2309C218.131 39.1909 214.691 42.5609 206.761 42.5609C198.831 42.5609 195.391 39.2509 195.391 33.2309ZM213.471 33.2309C213.471 29.5609 211.611 27.8609 206.751 27.8609C201.891 27.8609 200.031 29.5409 200.031 33.2309C200.031 36.9209 201.921 38.6609 206.751 38.6609C211.581 38.6609 213.471 36.9309 213.471 33.2309Z" fill="white"/>
<path d="M232.229 42.5609C224.269 42.5609 220.859 39.5409 220.859 33.2309V24.2109H225.509V33.2309C225.509 35.7609 226.209 38.6609 232.229 38.6609C238.249 38.6609 238.949 35.7409 238.949 33.2309V24.2109H243.599V33.2309C243.599 39.5109 240.159 42.5609 232.229 42.5609Z" fill="white"/>
<path d="M269.72 24.2188V42.2987H263.39L251.07 28.7388V42.2987H246.42V24.2188H252.72L265.07 37.8088V24.2188H269.72Z" fill="white"/>
<path d="M91.0902 35.3597H96.9102C96.8102 36.7297 95.0002 38.6897 90.5002 38.6897C84.4802 38.6897 83.6302 35.2797 83.6302 33.0797C83.6302 30.8797 84.4602 27.5797 90.5002 27.5797C95.4102 27.5797 96.6502 29.6197 96.9102 30.9897H101.64C101.36 26.4897 97.7402 23.6797 90.5102 23.6797C83.2802 23.6797 78.9902 26.9897 78.9902 32.9797C78.9902 38.9697 83.0702 42.2797 89.7402 42.2797C93.5902 42.2797 96.3002 41.0397 98.0102 39.1797L98.2202 42.0197H101.66V32.3297H92.2902L91.1202 35.3497L91.0902 35.3597Z" fill="white"/>
<path d="M159.48 38.3988V24.2188H154.83V42.2987H171.48L173 38.3988H159.48Z" fill="white"/>
<path d="M180.461 38.3988V24.2188H175.811V42.2987H192.471L193.981 38.3988H180.461Z" fill="white"/>
<path d="M283.35 35.5003H290.01C289.91 36.8703 288.1 38.8303 283.6 38.8303C277.58 38.8303 276.73 35.4203 276.73 33.2203C276.73 31.0203 277.56 27.7203 283.6 27.7203C288.51 27.7203 289.75 29.7603 290.01 31.1303H294.74C294.46 26.6303 290.84 23.8203 283.61 23.8203C276.38 23.8203 272.09 27.1303 272.09 33.1203C272.09 39.1103 276.17 42.4203 282.84 42.4203C286.69 42.4203 289.4 41.1803 291.11 39.3203L291.32 42.1603H294.76V32.4703H284.54L283.37 35.4903L283.35 35.5003Z" fill="white"/>
<path d="M302.211 27.9009H315.031L316.461 24.2109H297.561V42.2909H315.031L316.461 38.6009H302.211V34.9309H312.291L313.591 31.5709H302.211V27.9009Z" fill="white"/>
<path d="M45.88 8.68L47.89 3.49C43.44 1.26 38.42 0 33.11 0C14.85 0 0 14.85 0 33.11C0 43.85 5.14 53.41 13.09 59.46L15.19 54.04C9.29 48.98 5.54 41.47 5.54 33.11C5.54 17.9 17.91 5.53 33.12 5.53C35.56 5.53 37.93 5.85 40.18 6.45L36.98 14.72C35.72 14.46 34.43 14.32 33.12 14.32C22.76 14.32 14.33 22.75 14.33 33.11C14.33 39.99 18.05 46.02 23.58 49.29L20.35 57.55L18.34 62.74C22.79 64.97 27.8 66.22 33.11 66.22C51.37 66.22 66.22 51.37 66.22 33.11C66.22 22.37 61.08 12.82 53.14 6.76L51.04 12.18C56.94 17.24 60.69 24.74 60.69 33.11C60.69 48.32 48.32 60.69 33.11 60.69C30.67 60.69 28.3 60.37 26.05 59.77L29.25 51.5C30.5 51.76 31.79 51.9 33.11 51.9C43.47 51.9 51.9 43.47 51.9 33.11V30.13H34.04L31.52 36.09H45.59C44.24 41.73 39.16 45.93 33.11 45.93C32.55 45.93 31.99 45.89 31.45 45.82C29.36 45.55 27.43 44.77 25.77 43.62C22.46 41.3 20.28 37.45 20.28 33.11C20.28 26.04 26.03 20.29 33.1 20.29C33.66 20.29 34.21 20.33 34.76 20.4C36.81 20.66 38.75 21.42 40.44 22.6L42.64 16.93L45.87 8.68H45.88Z" fill="white"/>
</svg>
