<svg width="130" height="130" viewBox="0 0 130 130" fill="none" xmlns="http://www.w3.org/2000/svg">
<path d="M90.0695 17.0402L94.0154 6.8514C85.2794 2.47357 75.4243 0 65 0C29.1528 0 0 29.1528 0 65C0 86.0843 10.0906 104.852 25.6977 116.729L29.8203 106.089C18.2377 96.1552 10.8759 81.412 10.8759 65C10.8759 35.1404 35.1601 10.8562 65.0196 10.8562C69.8097 10.8562 74.4624 11.4844 78.8795 12.6623L72.5974 28.8976C70.1238 28.3872 67.5914 28.1124 65.0196 28.1124C44.6814 28.1124 28.132 44.6617 28.132 65C28.132 78.5065 35.4349 90.3443 46.2912 96.7638L39.9502 112.979L36.0042 123.168C44.7403 127.546 54.5757 130 65 130C100.847 130 130 100.847 130 65C130 43.9157 119.909 25.1676 104.322 13.2709L100.199 23.9112C111.782 33.8448 119.144 48.5684 119.144 65C119.144 94.8596 94.8596 119.144 65 119.144C60.2099 119.144 55.5572 118.516 51.1401 117.338L57.4222 101.102C59.8762 101.613 62.4086 101.888 65 101.888C85.3383 101.888 101.888 85.3383 101.888 65V59.1498H66.8257L61.8786 70.8502H89.5002C86.8499 81.9224 76.8771 90.1676 65 90.1676C63.9006 90.1676 62.8013 90.0891 61.7412 89.9517C57.6382 89.4216 53.8493 87.8904 50.5905 85.6327C44.0924 81.0782 39.8127 73.5201 39.8127 65C39.8127 51.1205 51.1009 39.8324 64.9804 39.8324C66.0797 39.8324 67.1595 39.9109 68.2392 40.0483C72.2637 40.5587 76.0722 42.0507 79.3899 44.3673L83.7089 33.2362L90.0498 17.0402H90.0695Z" fill="white"/>
</svg>
